<?xml version="1.0" encoding="utf-8"?>
<!-- Generator: Adobe Illustrator 26.1.0, SVG Export Plug-In . SVG Version: 6.00 Build 0)  -->
<svg version="1.1" id="Layer_1" xmlns="http://www.w3.org/2000/svg" xmlns:xlink="http://www.w3.org/1999/xlink" x="0px" y="0px"
	 viewBox="0 0 504.4 166.3" style="enable-background:new 0 0 504.4 166.3;" xml:space="preserve">
<style type="text/css">
	.st0{fill:#0453A2;}
	.st1{fill:url(#SVGID_1_);}
	.st2{fill:url(#SVGID_00000161613128426248790900000015391536479383256724_);}
	.st3{fill:url(#SVGID_00000073721582821090712400000001802733874299124657_);}
</style>
<g>
	<g>
		<path class="st0" d="M197.9,94.1c-2.7,1.9-5.8,2.9-9.4,2.9c-7.5,0-13.8-5.7-13.8-13.4c0-8.9,6.9-16.8,16.3-16.8
			c3.5,0,6.7,1.1,9.4,3.3l-3,3.9c-1.8-1.7-3.8-2.7-6.4-2.7c-6.5,0-10.8,5.7-10.8,12.2c0,4.7,3.5,9,8.5,9c2.6,0,4.8-0.8,6.5-2.3
			L197.9,94.1z"/>
		<path class="st0" d="M205.9,96.5h-5.1l5.5-31.2h5.1L205.9,96.5z"/>
		<path class="st0" d="M234.1,84.4c0,6.7-5.1,12.6-11.8,12.6c-6,0-10.2-4-10.2-9.9c0-6.7,5.1-12.5,11.8-12.5
			C229.9,74.5,234.1,78.5,234.1,84.4z M217.2,86.8c0,3.2,2,5.7,5.2,5.7c4,0,6.6-3.6,6.6-7.9c0-3.2-2-5.7-5.2-5.7
			C219.8,78.9,217.2,82.5,217.2,86.8z"/>
		<path class="st0" d="M243,86.5c-0.1,0.7-0.3,1.7-0.3,2.5c0,2.1,1,3.5,3.2,3.5c2.3,0,4.4-1.4,6-3.2l2.5-14.3h5.1l-3.8,21.5h-4.6
			l0.4-3c-1.9,2.2-4.1,3.5-7.1,3.5c-4.3,0-6.7-2.7-6.7-7.2c0-1.2,0.2-2.7,0.4-4L240,75h5.1L243,86.5z"/>
		<path class="st0" d="M277.1,96.5l0.2-2.1c-1.7,1.7-4.1,2.6-6.3,2.6c-4.8,0-9.3-3.7-9.3-9.7c0-6.6,4.9-12.7,11.7-12.7
			c2.7,0,5,1.2,6.6,3l2.2-12.3h5.1l-5.5,31.2H277.1z M277.9,89.9l1.3-7.3c-1.2-2.3-3.2-3.6-5.5-3.6c-4,0-6.9,3.5-6.9,7.7
			c0,3.5,2,5.9,5.5,5.9C274.1,92.5,276.4,91.7,277.9,89.9z"/>
		<path class="st0" d="M296.1,75l-0.2,2.1c1.7-1.7,4.2-2.6,6.3-2.6c4.8,0,9.3,3.7,9.3,9.7c0,6.6-4.9,12.7-11.7,12.7
			c-2.7,0-5-1.2-6.6-3l-2.3,13h-5.1l5.6-31.9C291.4,75,296.1,75,296.1,75z M295.3,81.6l-1.3,7.3c1.2,2.3,3.2,3.6,5.5,3.6
			c4,0,6.9-3.5,6.9-7.7c0-3.5-2-5.9-5.5-5.9C299.1,78.9,296.8,79.8,295.3,81.6z"/>
		<path class="st0" d="M322.1,77.6c1.8-1.9,3.9-3.1,6.7-3.1c4.3,0,6.7,2.7,6.7,7.2c0,1.2-0.2,2.7-0.4,4l-1.9,10.8h-5.1l2-11.5
			c0.1-0.7,0.3-1.7,0.3-2.5c0-2.1-1-3.5-3.2-3.5c-2.3,0-4.4,1.4-6,3.2l-2.5,14.3h-5.1l5.5-31.2h5.1L322.1,77.6z"/>
		<path class="st0" d="M338.2,104l4.7-8.5L338.8,75h5.4l2.4,14.5h0.1l7.5-14.5h5.6l-17.4,31.2L338.2,104z"/>
		<path class="st0" d="M360.7,90.2c1.2,1.5,3.1,2.7,5,2.7c1.5,0,3-0.8,3-2.7c0-1.5-2-2.3-4.1-3.3c-2-1.1-4.1-2.5-4.1-5.6
			c0-4.4,4-6.8,7.5-6.8c2.7,0,5.6,1.1,7.5,3l-3.1,3c-0.9-1-2.7-2.1-4.3-2.1c-1.4,0-2.7,0.9-2.7,2.3c0,1.6,2.1,2.3,4.2,3.4
			s4.2,2.6,4.2,5.8c0,4.6-4.2,6.9-8.3,6.9c-3.2,0-6.3-1.4-8-4.2L360.7,90.2z"/>
		<path class="st0" d="M377,96.5l3.8-21.5h5.1l-3.8,21.5H377z M381.4,71.5l0.8-4.7h5.1l-0.8,4.7H381.4z"/>
		<path class="st0" d="M404.3,80.9c-1.1-1.3-2.6-2-4.3-2c-4,0-6.7,3.7-6.7,7.9c0,3.2,2.1,5.7,5.2,5.7c1.6,0,2.9-0.5,4.1-1.6l2.7,3.5
			c-2.1,1.6-4.3,2.5-7,2.5c-6,0-10.3-4-10.3-9.9c0-6.7,5.2-12.6,11.9-12.6c2.8,0,5.3,0.8,7.3,2.8L404.3,80.9z"/>
		<path class="st0" d="M408.4,96.5l3.8-21.5h5.1l-3.8,21.5H408.4z M412.8,71.5l0.8-4.7h5.1l-0.8,4.7H412.8z"/>
		<path class="st0" d="M430.9,74.5c5.1,0,8.2,2.2,8.2,7c0,0.7-0.1,1.5-0.2,2l-2.3,13h-4.5l0.1-1.7c-1.7,1.5-3.6,2.2-5.8,2.2
			c-3.6,0-7-2.2-7-6.4c0-5.4,5.4-7.3,10.1-7.3c1.2,0,2.6,0.1,4.2,0.5l0.1-0.7c0.1-0.4,0.2-1,0.2-1.4c0-2.2-2.1-3.1-4.1-3.1
			c-2.3,0-4.5,0.7-6.8,1.9l-1.3-3.6C424.4,75.4,427.7,74.5,430.9,74.5z M433.2,87c-1.3-0.4-2.5-0.5-3.5-0.5c-2.1,0-5.3,0.8-5.3,3.7
			c0,1.9,1.6,2.9,3.2,2.9c1.8,0,3.3-0.7,4.8-1.9L433.2,87z"/>
		<path class="st0" d="M458.7,84.9c0.1-0.7,0.3-1.7,0.3-2.5c0-2.1-1-3.5-3.2-3.5c-2.3,0-4.4,1.4-6,3.2l-2.5,14.3h-5.1L446,75h4.6
			l-0.4,3c1.9-2.2,4.1-3.5,7.1-3.5c4.3,0,6.7,2.7,6.7,7.2c0,1.2-0.2,2.7-0.4,4l-1.9,10.8h-5.1L458.7,84.9z"/>
	</g>
	<g>
		<g>
			<g>
				<g>
					
						<linearGradient id="SVGID_1_" gradientUnits="userSpaceOnUse" x1="45.5952" y1="85.1303" x2="140.9522" y2="85.1303" gradientTransform="matrix(1 0 0 -1 0 168)">
						<stop  offset="0" style="stop-color:#008CD1"/>
						<stop  offset="7.604599e-03" style="stop-color:#008AD0"/>
						<stop  offset="7.359481e-02" style="stop-color:#007BC3"/>
						<stop  offset="0.1471" style="stop-color:#006EB9"/>
						<stop  offset="0.23" style="stop-color:#0064B1"/>
						<stop  offset="0.3258" style="stop-color:#005CAB"/>
						<stop  offset="0.4423" style="stop-color:#0056A7"/>
						<stop  offset="0.6016" style="stop-color:#0052A5"/>
						<stop  offset="1" style="stop-color:#0051A4"/>
					</linearGradient>
					<path class="st1" d="M92.2,127.1c-2.8,0-5.5-1-7.9-2.8l-0.1-0.1l-1.8-1.8c-2.8-3.2-4.1-7.2-5.3-11.1c-0.6-1.8-1.2-3.6-1.9-5.4
						c-3.1-7.3-10.7-8.8-17.7-9.6c-6-0.7-12.1-2.8-11.9-12.3l0.1-3.7c0.2-9.2,8.3-10.7,15.6-12.1c4.5-0.8,9.2-1.7,11.7-4.4
						c2.7-2.9,4.3-6.7,5.9-10.4c1.4-3.4,2.9-6.8,5.2-9.7l0.1-0.1l1.7-1.8c3-2.5,6.9-3.6,10.8-3c3.6,0.5,6.6,2.4,8.5,5.2
						c0.2,0.3,1.1,1.4,1.5,3.2c0.4,1.7,0.7,3.4,1,5c0.2,1.2,0.4,2.5,0.7,3.7l0.7,2.8c3.1,9.6,10.2,10.6,18.5,11.8
						c1.4,0.2,2.8,0.4,4.2,0.6c4.7,0.8,9.4,4.8,9.3,10.7l0,0l-0.1,3.7c-0.1,5.9-5.2,10.6-11.5,10.6c-0.1,0-0.1,0-0.2,0
						c-14.6-0.2-19.6,7.4-21,10.7c-0.8,1.8-1.3,3.7-1.8,5.8c-0.4,1.5-0.7,3-1.2,4.4c-1.6,4.7-5,8.1-9.4,9.4
						C94.6,126.9,93.4,127.1,92.2,127.1z M85.9,122.5c2.6,2.1,6,2.8,9.2,1.8c3.6-1.1,6.5-3.9,7.8-7.9c0.5-1.4,0.8-2.8,1.2-4.2
						c0.5-2.1,1-4.2,1.9-6.2c1.6-3.7,7.2-12.4,23.2-12.2c0.1,0,0.1,0,0.2,0c4.9,0,9-3.7,9.1-8.3l0.1-3.7c0.1-4.6-3.6-7.7-7.3-8.3
						c-1.4-0.2-2.8-0.4-4.1-0.6c-8.3-1.2-16.9-2.4-20.4-13.5l-0.8-2.9c-0.3-1.3-0.5-2.6-0.7-3.8c-0.3-1.6-0.6-3.3-1-4.8
						c-0.4-1.4-1.1-2.3-1.1-2.3l-0.1-0.1c-1.5-2.3-3.9-3.8-6.9-4.2c-3.2-0.5-6.5,0.5-8.9,2.4l-1.6,1.6c-2,2.6-3.4,5.7-4.8,9.1
						c-1.6,3.9-3.3,7.9-6.3,11.1s-8.1,4.2-13,5.1c-7.2,1.3-13.5,2.5-13.6,9.8l0,0v3.7c-0.1,7.2,3.7,9.1,9.8,9.9
						c8.2,1,16.2,3,19.6,11.1c0.8,1.8,1.4,3.7,2,5.6c1.2,3.8,2.4,7.3,4.8,10.2L85.9,122.5z"/>
				</g>
			</g>
		</g>
		<g>
			<g>
				<g>
					
						<linearGradient id="SVGID_00000152229818334186095090000011165456511200546445_" gradientUnits="userSpaceOnUse" x1="37.1837" y1="85.0594" x2="131.1939" y2="85.0594" gradientTransform="matrix(1 0 0 -1 0 168)">
						<stop  offset="0" style="stop-color:#008CD1"/>
						<stop  offset="7.604599e-03" style="stop-color:#008AD0"/>
						<stop  offset="7.359481e-02" style="stop-color:#007BC3"/>
						<stop  offset="0.1471" style="stop-color:#006EB9"/>
						<stop  offset="0.23" style="stop-color:#0064B1"/>
						<stop  offset="0.3258" style="stop-color:#005CAB"/>
						<stop  offset="0.4423" style="stop-color:#0056A7"/>
						<stop  offset="0.6016" style="stop-color:#0052A5"/>
						<stop  offset="1" style="stop-color:#0051A4"/>
					</linearGradient>
					<path style="fill:url(#SVGID_00000152229818334186095090000011165456511200546445_);" d="M83.1,126.4c-2.7,0-5.3-0.9-7.4-2.7
						l-1.8-1.7c-2.7-3.1-4-7.1-5.2-10.9c-0.6-1.8-1.2-3.7-1.9-5.4c-3.2-7.6-11.1-9.2-18.2-10.1c-6-0.7-11.5-2.6-11.3-11.6
						c0.1-3.7,0.1-3.7,0.1-3.7c0.1-8.6,7.7-10,15-11.4c4.7-0.9,9.5-1.8,12-4.6c2.7-3,4.4-6.9,6-10.6c1.4-3.3,2.9-6.7,5.1-9.5
						l1.7-1.7c2.8-2.3,6.6-3.4,10.3-2.9c3.4,0.5,6.2,2.2,8,4.9l0,0c0,0,0.9,1.1,1.4,2.9c0.4,1.6,0.7,3.3,1,5
						c0.2,1.2,0.4,2.5,0.7,3.7l0.7,2.8c3.2,10,10.9,11.1,19,12.3c1.4,0.2,2.8,0.4,4.2,0.6c4.4,0.8,8.8,4.5,8.7,10l-0.1,3.7
						c-0.1,5.6-5,10-11,9.9c-15-0.3-20.1,7.7-21.6,11.1c-0.8,1.9-1.3,3.9-1.8,5.9c-0.4,1.4-0.7,2.9-1.2,4.4c-1.5,4.5-4.8,7.7-9,8.9
						C85.4,126.3,84.3,126.4,83.1,126.4z M85.5,40.6c-2.8,0-5.6,1-7.7,2.7L76.1,45c-2.1,2.6-3.5,5.8-4.9,9.2
						C69.6,58,67.9,62,65,65.1c-2.8,3.1-7.8,4-12.6,4.9c-7.2,1.3-14,2.6-14.2,10.4c0,0.1-0.1,3.7-0.1,3.7
						c-0.1,7.7,4.1,9.8,10.4,10.6c8,1,15.8,2.9,19.1,10.7c0.8,1.8,1.4,3.7,2,5.5c1.2,3.9,2.4,7.5,5,10.5l1.7,1.7
						c2.8,2.2,6.4,2.9,9.8,2c3.8-1.1,6.9-4.1,8.3-8.3c0.5-1.4,0.8-2.9,1.2-4.3c0.5-2,1-4.1,1.9-6.1c1.6-3.6,7-12,22.6-11.8
						c0.1,0,0.1,0,0.2,0c5.3,0,9.7-4,9.8-8.9l0.1-3.7c0.1-5-3.9-8.3-7.9-9c-1.4-0.2-2.8-0.4-4.1-0.6c-8.1-1.2-16.5-2.3-19.9-13
						l-0.8-2.9c-0.3-1.3-0.5-2.5-0.7-3.8c-0.3-1.6-0.6-3.3-1-4.9c-0.4-1.6-1.2-2.6-1.2-2.6c-1.7-2.5-4.3-4.1-7.4-4.5
						C86.6,40.6,86,40.6,85.5,40.6z"/>
				</g>
			</g>
		</g>
		<g>
			<g>
				
					<linearGradient id="SVGID_00000178887277561544625930000009895666644938633906_" gradientUnits="userSpaceOnUse" x1="52.5511" y1="84.95" x2="158.1879" y2="84.95" gradientTransform="matrix(1 0 0 -1 0 168)">
					<stop  offset="0" style="stop-color:#008CD1"/>
					<stop  offset="7.604599e-03" style="stop-color:#008AD0"/>
					<stop  offset="7.359481e-02" style="stop-color:#007BC3"/>
					<stop  offset="0.1471" style="stop-color:#006EB9"/>
					<stop  offset="0.23" style="stop-color:#0064B1"/>
					<stop  offset="0.3258" style="stop-color:#005CAB"/>
					<stop  offset="0.4423" style="stop-color:#0056A7"/>
					<stop  offset="0.6016" style="stop-color:#0052A5"/>
					<stop  offset="1" style="stop-color:#0051A4"/>
				</linearGradient>
				<path style="fill:url(#SVGID_00000178887277561544625930000009895666644938633906_);" d="M98.5,131.4L98.5,131.4h-4.4
					c-3.7,0-7-1.5-9.1-4.1c-2-2.5-2.8-5.7-2.1-9l2.9-14.5c0.3-1.5,0-3-0.9-4.1c-1-1.2-2.5-1.8-4.3-1.8L64,97.7c-3.7,0-7-1.5-9.1-4.1
					c-2-2.5-2.8-5.7-2.1-9l0.8-4c1.4-6.8,8.1-12.1,15.3-12.1c0,0,0,0,0.1,0l16.6,0.1l0,0c3.9,0,7.8-3,8.5-6.7l3-15.1
					c1.4-6.8,8.1-12.1,15.3-12.1c0,0,0,0,0.1,0h4.4c3.7,0,7,1.5,9.1,4.1c2,2.5,2.8,5.7,2.1,9l-3,15.1c-0.3,1.5,0,3,0.9,4.1
					c1,1.2,2.5,1.8,4.3,1.8l16.6,0.1c3.7,0,7,1.5,9.1,4.1c2,2.5,2.8,5.7,2.1,9l-0.8,4c-1.4,6.8-8.1,12.1-15.3,12.1c0,0,0,0-0.1,0
					L125.2,98l0,0c-3.9,0-7.8,3-8.5,6.7l-2.9,14.5C112.4,126.1,105.7,131.4,98.5,131.4z M80.5,93.4c3.1,0,6,1.3,7.7,3.5
					c1.7,2.1,2.4,4.9,1.8,7.7l-2.9,14.5c-0.4,2,0,3.9,1.2,5.4c1.3,1.6,3.3,2.4,5.7,2.4h4.4l0,0c5,0,10-3.9,10.9-8.6l2.9-14.5
					c1.1-5.8,6.8-10.3,12.9-10.3c0,0,0,0,0.1,0l16.6,0.1l0,0c5,0,10-3.9,10.9-8.6l0.8-4c0.4-2,0-3.9-1.2-5.4
					c-1.3-1.6-3.3-2.4-5.7-2.4L130,73.1c-3.1,0-6-1.3-7.7-3.5c-1.7-2.1-2.4-4.9-1.8-7.7l3-15.1c0.4-2,0-3.9-1.2-5.4
					c-1.3-1.6-3.3-2.4-5.7-2.4h-4.4l0,0c-5,0-10,3.9-10.9,8.6l-3,15.1C97.2,68.5,91.6,73,85.5,73c0,0,0,0-0.1,0l-16.6-0.1l0,0
					c-5,0-10,3.9-10.9,8.6l-0.8,4c-0.4,2,0,3.9,1.2,5.4c1.3,1.6,3.3,2.4,5.7,2.4L80.5,93.4z"/>
			</g>
		</g>
	</g>
</g>
</svg>
